<?xml version="1.0" encoding="UTF-8" standalone="no"?>
<!DOCTYPE svg PUBLIC "-//W3C//DTD SVG 1.1//EN"
 "http://www.w3.org/Graphics/SVG/1.1/DTD/svg11.dtd">
<!-- Generated by graphviz version 2.40.1 (20161225.0304)
 -->
<!-- Title: G Pages: 1 -->
<svg width="171pt" height="538pt"
 viewBox="0.00 0.00 171.00 538.00" xmlns="http://www.w3.org/2000/svg" xmlns:xlink="http://www.w3.org/1999/xlink">
<g id="graph0" class="graph" transform="scale(1 1) rotate(0) translate(4 534)">
<title>G</title>
<polygon fill="#ffffff" stroke="transparent" points="-4,4 -4,-534 167,-534 167,4 -4,4"/>
<!-- A0 -->
<g id="node1" class="node">
<title>A0</title>
<polygon fill="none" stroke="#000000" points="46.5,-498 46.5,-530 117.5,-530 117.5,-498 46.5,-498"/>
<text text-anchor="start" x="56.0245" y="-511" font-family="Helvetica,sans-Serif" font-size="10.00" fill="#000000">+ICustomer</text>
<polygon fill="none" stroke="#000000" points="46.5,-478 46.5,-498 117.5,-498 117.5,-478 46.5,-478"/>
<polygon fill="none" stroke="#000000" points="46.5,-446 46.5,-478 117.5,-478 117.5,-446 46.5,-446"/>
<text text-anchor="start" x="64.779" y="-459" font-family="Helvetica,sans-Serif" font-size="10.00" fill="#000000"> Greet()</text>
</g>
<!-- A1 -->
<g id="node2" class="node">
<title>A1</title>
<polygon fill="none" stroke="#000000" points="7.5,-364 7.5,-396 156.5,-396 156.5,-364 7.5,-364"/>
<text text-anchor="start" x="57.414" y="-377" font-family="Helvetica,sans-Serif" font-size="10.00" fill="#000000">+Customer</text>
<polygon fill="none" stroke="#000000" points="7.5,-320 7.5,-364 156.5,-364 156.5,-320 7.5,-320"/>
<text text-anchor="start" x="51.576" y="-345" font-family="Helvetica,sans-Serif" font-size="10.00" fill="#000000"> +name:string</text>
<text text-anchor="start" x="25.891" y="-333" font-family="Helvetica,sans-Serif" font-size="10.00" fill="#000000">&#45;creditCardNumber:string</text>
<polygon fill="none" stroke="#000000" points="7.5,-276 7.5,-320 156.5,-320 156.5,-276 7.5,-276"/>
<text text-anchor="start" x="17.138" y="-301" font-family="Helvetica,sans-Serif" font-size="10.00" fill="#000000"> +CreditCardNumber:string:w</text>
<text text-anchor="start" x="63.249" y="-289" font-family="Helvetica,sans-Serif" font-size="10.00" fill="#000000">+Greet()</text>
</g>
<!-- A0&#45;&gt;A1 -->
<g id="edge1" class="edge">
<title>A0&#45;&gt;A1</title>
<path fill="none" stroke="#000000" stroke-dasharray="5,2" d="M81.5,-435.6559C81.5,-422.8779 81.5,-409.1089 81.5,-396.0045"/>
<polygon fill="#000000" stroke="#000000" points="81.5,-445.6595 77.0001,-435.6595 81.5,-440.6595 81.5001,-435.6595 81.5001,-435.6595 81.5001,-435.6595 81.5,-440.6595 86.0001,-435.6596 81.5,-445.6595 81.5,-445.6595"/>
</g>
<!-- A2 -->
<g id="node3" class="node">
<title>A2</title>
<polygon fill="none" stroke="#000000" points="122.6702,-226 40.3298,-226 40.3298,-190 122.6702,-190 122.6702,-226"/>
<text text-anchor="middle" x="81.5" y="-205" font-family="Helvetica,sans-Serif" font-size="10.00" fill="#000000">+A:HotDrink</text>
</g>
<!-- A1&#45;&gt;A2 -->
<g id="edge2" class="edge">
<title>A1&#45;&gt;A2</title>
<path fill="none" stroke="#000000" d="M81.5,-275.7481C81.5,-257.7219 81.5,-239.2979 81.5,-226.2224"/>
<text text-anchor="middle" x="89.9524" y="-241.3486" font-family="Helvetica,sans-Serif" font-size="10.00" fill="#000000">0</text>
<text text-anchor="middle" x="73.0476" y="-254.6219" font-family="Helvetica,sans-Serif" font-size="10.00" fill="#000000">1</text>
</g>
<!-- A3 -->
<g id="node4" class="node">
<title>A3</title>
<polygon fill="none" stroke="#000000" points=".5,-108 .5,-140 163.5,-140 163.5,-108 .5,-108"/>
<text text-anchor="start" x="49.906" y="-121" font-family="Helvetica,sans-Serif" font-size="10.00" fill="#000000">+CupOfCoffee</text>
<polygon fill="none" stroke="#000000" points=".5,-76 .5,-108 163.5,-108 163.5,-76 .5,-76"/>
<text text-anchor="start" x="43.237" y="-89" font-family="Helvetica,sans-Serif" font-size="10.00" fill="#000000">+beanType:string</text>
<polygon fill="none" stroke="#000000" points=".5,-44 .5,-76 163.5,-76 163.5,-44 .5,-44"/>
<text text-anchor="start" x="57.135" y="-57" font-family="Helvetica,sans-Serif" font-size="10.00" fill="#000000">+Steam():o</text>
<polygon fill="none" stroke="#000000" points=".5,0 .5,-44 163.5,-44 163.5,0 .5,0"/>
<text text-anchor="start" x="78.671" y="-25" font-family="Helvetica,sans-Serif" font-size="10.00" fill="#000000">()</text>
<text text-anchor="start" x="10.325" y="-13" font-family="Helvetica,sans-Serif" font-size="10.00" fill="#000000">(brand:string):base(brand:string)</text>
</g>
<!-- A2&#45;&gt;A3 -->
<g id="edge3" class="edge">
<title>A2&#45;&gt;A3</title>
<path fill="none" stroke="#000000" d="M81.5,-179.6889C81.5,-168.1432 81.5,-154.2329 81.5,-140.2539"/>
<polygon fill="none" stroke="#000000" points="78.0001,-179.9589 81.5,-189.9589 85.0001,-179.9589 78.0001,-179.9589"/>
</g>
</g>
</svg>
